<svg aria-hidden="true" style="position: absolute; width: 0; height: 0; overflow: hidden;" version="1.1" xmlns="http://www.w3.org/2000/svg" xmlns:xlink="http://www.w3.org/1999/xlink">
<defs>
<symbol id="icon-old-phone" viewBox="0 0 20 20">
<path d="M17.256 12.253c-0.096-0.667-0.611-1.187-1.274-1.342-2.577-0.604-3.223-2.088-3.332-3.734-0.457-0.085-1.27-0.177-2.65-0.177s-2.193 0.092-2.65 0.177c-0.109 1.646-0.755 3.13-3.332 3.734-0.663 0.156-1.178 0.675-1.274 1.342l-0.497 3.442c-0.175 1.212 0.715 2.305 1.953 2.305h11.6c1.237 0 2.128-1.093 1.953-2.305l-0.497-3.442zM10 15.492c-1.395 0-2.526-1.12-2.526-2.5s1.131-2.5 2.526-2.5 2.526 1.12 2.526 2.5-1.132 2.5-2.526 2.5zM19.95 6c-0.024-1.5-3.842-3.999-9.95-4-6.109 0.001-9.927 2.5-9.95 4s0.021 3.452 2.535 3.127c2.941-0.381 2.76-1.408 2.76-2.876 0-1.024 2.392-1.271 4.655-1.271s4.654 0.247 4.655 1.271c0 1.468-0.181 2.495 2.76 2.876 2.513 0.325 2.558-1.627 2.535-3.127z"></path>
</symbol>
<symbol id="icon-rss" viewBox="0 0 20 20">
<path d="M2.4 2.4v2.367c7.086 0 12.83 5.746 12.83 12.832h2.369c0-8.394-6.805-15.199-15.199-15.199zM2.4 7.137v2.369c4.469 0 8.093 3.623 8.093 8.094h2.368c0-5.778-4.684-10.463-10.461-10.463zM4.669 13.059c-1.254 0-2.27 1.018-2.27 2.271s1.016 2.27 2.27 2.27 2.269-1.016 2.269-2.27-1.015-2.271-2.269-2.271z"></path>
</symbol>
<symbol id="icon-scissors" viewBox="0 0 20 20">
<path d="M8.38 5.59c0-2.038-1.652-3.69-3.69-3.69s-3.69 1.652-3.69 3.69c0 2.038 1.652 3.69 3.69 3.69 0.96 0 1.826-0.376 2.483-0.976l1.827 1.687 0.012 0.009-0.004 0.003-1.836 1.693c-0.656-0.6-1.522-0.976-2.482-0.976-2.038 0-3.69 1.652-3.69 3.69s1.652 3.69 3.69 3.69 3.69-1.652 3.69-3.69c0-0.297-0.044-0.582-0.111-0.858l2.844-1.991 4.127 3.065c2.212 1.549 3.76-0.663 3.76-0.663l-10.731-7.515c0.066-0.276 0.111-0.561 0.111-0.858zM4.69 7.39c-0.994 0-1.8-0.806-1.8-1.8s0.806-1.8 1.8-1.8 1.8 0.806 1.8 1.8-0.806 1.8-1.8 1.8zM4.69 16.21c-0.994 0-1.8-0.806-1.8-1.8s0.806-1.8 1.8-1.8 1.8 0.806 1.8 1.8-0.806 1.8-1.8 1.8zM19 6.038c0 0-1.548-2.212-3.76-0.663l-3.205 2.235 2.354 1.648 4.611-3.22z"></path>
</symbol>
<symbol id="icon-tablet" viewBox="0 0 20 20">
<path d="M16 0h-12c-1.1 0-2 0.899-2 2v16c0 1.1 0.9 2 2 2h12c1.101 0 2-0.9 2-2v-16c0-1.101-0.899-2-2-2zM10 19c-0.69 0-1.25-0.447-1.25-1s0.56-1 1.25-1c0.689 0 1.25 0.447 1.25 1s-0.561 1-1.25 1zM16 16h-12v-14h12v14z"></path>
</symbol>
</defs>
</svg>
